<svg xmlns="http://www.w3.org/2000/svg" viewBox="0 0 1600 900" width="1600" height="900" preserveAspectRatio="xMidYMid slice">
  <rect width="1600" height="900" fill="#ffffff"/>
  <g fill="none" stroke-linecap="round" stroke-linejoin="round">
    <path d="M220 220 Q430 90 650 190" stroke="#34D399" stroke-width="5" opacity="0.24"/>
    <path d="M1240 250 Q1380 180 1480 280" stroke="#F97316" stroke-width="4" opacity="0.18"/>
    <path d="M250 680 Q520 800 800 700 Q1080 600 1350 730" stroke="#DC382D" stroke-width="4" opacity="0.12"/>
    <circle cx="300" cy="250" r="5" fill="#DC382D" opacity="0.18"/>
    <circle cx="480" cy="180" r="4" fill="#F97316" opacity="0.18"/>
    <circle cx="1120" cy="170" r="5" fill="#DC382D" opacity="0.18"/>
    <circle cx="1320" cy="310" r="4" fill="#34D399" opacity="0.16"/>
    <circle cx="1180" cy="700" r="5" fill="#F97316" opacity="0.16"/>
    <rect x="250" y="330" width="190" height="130" rx="20" stroke="#DC382D" stroke-width="5" fill="#FFF7ED"/>
    <rect x="250" y="520" width="190" height="130" rx="20" stroke="#F97316" stroke-width="5" fill="#ffffff"/>
    <rect x="1160" y="425" width="190" height="130" rx="20" stroke="#F97316" stroke-width="5" fill="#ffffff"/>
    <path d="M440 395 L720 395" stroke="#DC382D" stroke-width="6" opacity="0.72"/>
    <path d="M440 585 L720 465" stroke="#F97316" stroke-width="5" opacity="0.5"/>
    <path d="M880 465 L1160 490" stroke="#DC382D" stroke-width="6" opacity="0.72"/>
    <circle cx="800" cy="430" r="120" stroke="#DC382D" stroke-width="8" opacity="0.18"/>
    <circle cx="800" cy="430" r="52" stroke="#34D399" stroke-width="6" opacity="0.58"/>
    <path d="M760 430 Q800 390 840 430" stroke="#34D399" stroke-width="6"/>
    <path d="M760 470 Q800 510 840 470" stroke="#34D399" stroke-width="6"/>
  </g>
</svg>