<svg xmlns="http://www.w3.org/2000/svg" viewBox="0 0 1600 900" width="1600" height="900" preserveAspectRatio="xMidYMid slice">
  <rect width="1600" height="900" fill="#ffffff"/>
  <g fill="none" stroke-linecap="round" stroke-linejoin="round">
    <path d="M220 220 Q430 90 650 190" stroke="#34D399" stroke-width="5" opacity="0.24"/>
    <path d="M1240 250 Q1380 180 1480 280" stroke="#F97316" stroke-width="4" opacity="0.18"/>
    <path d="M250 680 Q520 800 800 700 Q1080 600 1350 730" stroke="#DC382D" stroke-width="4" opacity="0.12"/>
    <circle cx="300" cy="250" r="5" fill="#DC382D" opacity="0.18"/>
    <circle cx="480" cy="180" r="4" fill="#F97316" opacity="0.18"/>
    <circle cx="1120" cy="170" r="5" fill="#DC382D" opacity="0.18"/>
    <circle cx="1320" cy="310" r="4" fill="#34D399" opacity="0.16"/>
    <circle cx="1180" cy="700" r="5" fill="#F97316" opacity="0.16"/>
    <rect x="420" y="240" width="180" height="120" rx="18" stroke="#DC382D" stroke-width="5" fill="#FFF7ED"/>
    <rect x="420" y="500" width="180" height="120" rx="18" stroke="#DC382D" stroke-width="5" fill="#FFF7ED"/>
    <rect x="710" y="170" width="180" height="120" rx="18" stroke="#DC382D" stroke-width="5" fill="#FFF7ED"/>
    <rect x="710" y="565" width="180" height="120" rx="18" stroke="#DC382D" stroke-width="5" fill="#FFF7ED"/>
    <rect x="1000" y="240" width="180" height="120" rx="18" stroke="#DC382D" stroke-width="5" fill="#FFF7ED"/>
    <rect x="1000" y="500" width="180" height="120" rx="18" stroke="#DC382D" stroke-width="5" fill="#FFF7ED"/>
    <path d="M600 300 L710 230" stroke="#DC382D" stroke-width="5"/>
    <path d="M600 560 L710 625" stroke="#DC382D" stroke-width="5"/>
    <path d="M890 230 L1000 300" stroke="#DC382D" stroke-width="5"/>
    <path d="M890 625 L1000 560" stroke="#DC382D" stroke-width="5"/>
    <path d="M600 300 L1000 300" stroke="#F97316" stroke-width="4" opacity="0.4"/>
    <path d="M600 560 L1000 560" stroke="#F97316" stroke-width="4" opacity="0.4"/>
    <path d="M800 290 L800 565" stroke="#34D399" stroke-width="4" opacity="0.36"/>
  </g>
</svg>