<svg xmlns="http://www.w3.org/2000/svg" viewBox="0 0 1600 900" width="1600" height="900" preserveAspectRatio="xMidYMid slice">
  <rect width="1600" height="900" fill="#ffffff"/>
  <g fill="none" stroke-linecap="round" stroke-linejoin="round">
    <path d="M220 220 Q430 90 650 190" stroke="#F59E0B" stroke-width="5" opacity="0.24"/>
    <path d="M1240 250 Q1380 180 1480 280" stroke="#34D399" stroke-width="4" opacity="0.18"/>
    <path d="M250 680 Q520 800 800 700 Q1080 600 1350 730" stroke="#009639" stroke-width="4" opacity="0.12"/>
    <circle cx="300" cy="250" r="5" fill="#009639" opacity="0.18"/>
    <circle cx="480" cy="180" r="4" fill="#34D399" opacity="0.18"/>
    <circle cx="1120" cy="170" r="5" fill="#009639" opacity="0.18"/>
    <circle cx="1320" cy="310" r="4" fill="#F59E0B" opacity="0.16"/>
    <circle cx="1180" cy="700" r="5" fill="#34D399" opacity="0.16"/>
    <rect x="300" y="250" width="220" height="300" rx="24" stroke="#009639" stroke-width="5" fill="#F0FDF4"/>
    <rect x="1080" y="250" width="220" height="300" rx="24" stroke="#009639" stroke-width="5" fill="#F0FDF4"/>
    <path d="M520 400 L1080 400" stroke="#009639" stroke-width="6" opacity="0.32"/>
    <path d="M640 400 C700 320 900 320 960 400" stroke="#34D399" stroke-width="6" opacity="0.42"/>
    <path d="M640 400 C700 480 900 480 960 400" stroke="#F59E0B" stroke-width="6" opacity="0.42"/>
    <circle cx="800" cy="400" r="120" stroke="#009639" stroke-width="8" opacity="0.22"/>
    <path d="M700 400 L760 460 L900 330" stroke="#009639" stroke-width="8" opacity="0.78"/>
    <path d="M280 660 Q500 740 800 640 Q1100 540 1320 660" stroke="#009639" stroke-width="5" opacity="0.22"/>
    <path d="M390 620 C470 560 530 560 610 620" stroke="#34D399" stroke-width="5" opacity="0.36"/>
    <path d="M990 620 C1070 560 1130 560 1210 620" stroke="#34D399" stroke-width="5" opacity="0.36"/>
  </g>
</svg>