<svg xmlns="http://www.w3.org/2000/svg" viewBox="0 0 1600 900" width="1600" height="900" preserveAspectRatio="xMidYMid slice">
  <rect width="1600" height="900" fill="#ffffff"/>
  <g fill="none" stroke-linecap="round" stroke-linejoin="round">
    <path d="M220 220 Q430 90 650 190" stroke="#F59E0B" stroke-width="5" opacity="0.24"/>
    <path d="M1240 250 Q1380 180 1480 280" stroke="#34D399" stroke-width="4" opacity="0.18"/>
    <path d="M250 680 Q520 800 800 700 Q1080 600 1350 730" stroke="#009639" stroke-width="4" opacity="0.12"/>
    <circle cx="300" cy="250" r="5" fill="#009639" opacity="0.18"/>
    <circle cx="480" cy="180" r="4" fill="#34D399" opacity="0.18"/>
    <circle cx="1120" cy="170" r="5" fill="#009639" opacity="0.18"/>
    <circle cx="1320" cy="310" r="4" fill="#F59E0B" opacity="0.16"/>
    <circle cx="1180" cy="700" r="5" fill="#34D399" opacity="0.16"/>
    <path d="M120 500 C280 230 470 310 620 390 C760 465 900 385 1060 300 C1200 230 1360 320 1480 470" stroke="#009639" stroke-width="12" opacity="0.82"/>
    <path d="M120 500 C260 560 430 610 590 560 C760 505 930 420 1100 460 C1250 495 1360 560 1480 470" stroke="#34D399" stroke-width="5" opacity="0.3"/>
    <circle cx="190" cy="430" r="16" fill="#009639"/>
    <circle cx="340" cy="330" r="16" fill="#009639"/>
    <circle cx="500" cy="360" r="16" fill="#009639"/>
    <circle cx="660" cy="320" r="16" fill="#009639"/>
    <circle cx="830" cy="350" r="16" fill="#009639"/>
    <circle cx="1000" cy="310" r="16" fill="#009639"/>
    <circle cx="1180" cy="340" r="16" fill="#009639"/>
    <circle cx="1360" cy="390" r="16" fill="#F59E0B"/>
    <path d="M190 430 L340 330 L500 360 L660 320 L830 350 L1000 310 L1180 340 L1360 390" stroke="#009639" stroke-width="4" opacity="0.24"/>
  </g>
</svg>