<svg xmlns="http://www.w3.org/2000/svg" viewBox="0 0 1600 900" width="1600" height="900" preserveAspectRatio="xMidYMid slice">
  <rect width="1600" height="900" fill="#ffffff"/>
  <g fill="none" stroke-linecap="round" stroke-linejoin="round">
    <path d="M220 220 Q430 90 650 190" stroke="#F59E0B" stroke-width="5" opacity="0.24"/>
    <path d="M1240 250 Q1380 180 1480 280" stroke="#FB7185" stroke-width="4" opacity="0.18"/>
    <path d="M250 680 Q520 800 800 700 Q1080 600 1350 730" stroke="#E11D48" stroke-width="4" opacity="0.12"/>
    <circle cx="300" cy="250" r="5" fill="#E11D48" opacity="0.18"/>
    <circle cx="480" cy="180" r="4" fill="#FB7185" opacity="0.18"/>
    <circle cx="1120" cy="170" r="5" fill="#E11D48" opacity="0.18"/>
    <circle cx="1320" cy="310" r="4" fill="#F59E0B" opacity="0.16"/>
    <circle cx="1180" cy="700" r="5" fill="#FB7185" opacity="0.16"/>
    <rect x="230" y="290" width="220" height="300" rx="24" stroke="#475569" stroke-width="4" fill="#F8FAFC"/>
    <line x1="285" y1="380" x2="395" y2="380" stroke="#94A3B8" stroke-width="3" opacity="0.44"/>
    <line x1="285" y1="450" x2="395" y2="450" stroke="#94A3B8" stroke-width="3" opacity="0.44"/>
    <path d="M450 440 L620 440" stroke="#E11D48" stroke-width="6" opacity="0.68"/>
    <rect x="620" y="220" width="360" height="360" rx="30" stroke="#E11D48" stroke-width="6" fill="#FFF1F2"/>
    <path d="M700 300 L800 430 L900 300" stroke="#E11D48" stroke-width="14"/>
    <path d="M700 500 L800 430 L900 500" stroke="#E11D48" stroke-width="14" opacity="0.9"/>
    <path d="M700 340 Q800 270 900 340" stroke="#F59E0B" stroke-width="6" opacity="0.6"/>
    <path d="M700 470 Q800 540 900 470" stroke="#F59E0B" stroke-width="6" opacity="0.6"/>
    <path d="M980 440 L1150 440" stroke="#FB7185" stroke-width="5" opacity="0.68"/>
    <rect x="1150" y="290" width="220" height="300" rx="24" stroke="#475569" stroke-width="4" fill="#F8FAFC"/>
    <line x1="1210" y1="380" x2="1320" y2="380" stroke="#94A3B8" stroke-width="3" opacity="0.44"/>
    <line x1="1210" y1="450" x2="1320" y2="450" stroke="#94A3B8" stroke-width="3" opacity="0.44"/>
  </g>
</svg>