<svg xmlns="http://www.w3.org/2000/svg" viewBox="0 0 1600 900" width="1600" height="900" preserveAspectRatio="xMidYMid slice">
  <rect width="1600" height="900" fill="#ffffff"/>
  <g fill="none" stroke-linecap="round" stroke-linejoin="round">
    <path d="M220 220 Q430 90 650 190" stroke="#34D399" stroke-width="5" opacity="0.24"/>
    <path d="M1240 250 Q1380 180 1480 280" stroke="#F97316" stroke-width="4" opacity="0.18"/>
    <path d="M250 680 Q520 800 800 700 Q1080 600 1350 730" stroke="#DC382D" stroke-width="4" opacity="0.12"/>
    <circle cx="300" cy="250" r="5" fill="#DC382D" opacity="0.18"/>
    <circle cx="480" cy="180" r="4" fill="#F97316" opacity="0.18"/>
    <circle cx="1120" cy="170" r="5" fill="#DC382D" opacity="0.18"/>
    <circle cx="1320" cy="310" r="4" fill="#34D399" opacity="0.16"/>
    <circle cx="1180" cy="700" r="5" fill="#F97316" opacity="0.16"/>
    <path d="M300 280 Q430 180 530 250" stroke="#34D399" stroke-width="6" opacity="0.34"/>
    <path d="M300 330 Q430 230 530 300" stroke="#34D399" stroke-width="6" opacity="0.34"/>
    <path d="M300 380 Q430 280 530 350" stroke="#34D399" stroke-width="6" opacity="0.34"/>
    <path d="M470 450 L730 450" stroke="#DC382D" stroke-width="6" opacity="0.68"/>
    <rect x="730" y="260" width="300" height="360" rx="26" stroke="#DC382D" stroke-width="6" fill="#FFF7ED"/>
    <path d="M780 330 L980 330" stroke="#DC382D" stroke-width="5" opacity="0.28"/>
    <path d="M780 440 L980 440" stroke="#DC382D" stroke-width="5" opacity="0.28"/>
    <path d="M780 550 L980 550" stroke="#DC382D" stroke-width="5" opacity="0.28"/>
    <rect x="1110" y="300" width="170" height="90" rx="14" stroke="#F97316" stroke-width="4" fill="#ffffff"/>
    <rect x="1110" y="500" width="170" height="90" rx="14" stroke="#F97316" stroke-width="4" fill="#ffffff"/>
    <path d="M1030 360 L1110 345" stroke="#F97316" stroke-width="5"/>
    <path d="M1030 520 L1110 545" stroke="#F97316" stroke-width="5"/>
  </g>
</svg>