<svg xmlns="http://www.w3.org/2000/svg" viewBox="0 0 1600 900" width="1600" height="900" preserveAspectRatio="xMidYMid slice">
  <rect width="1600" height="900" fill="#ffffff"/>
  <g fill="none" stroke-linecap="round" stroke-linejoin="round">
    <path d="M220 220 Q430 90 650 190" stroke="#34D399" stroke-width="5" opacity="0.24"/>
    <path d="M1240 250 Q1380 180 1480 280" stroke="#F97316" stroke-width="4" opacity="0.18"/>
    <path d="M250 680 Q520 800 800 700 Q1080 600 1350 730" stroke="#DC382D" stroke-width="4" opacity="0.12"/>
    <circle cx="300" cy="250" r="5" fill="#DC382D" opacity="0.18"/>
    <circle cx="480" cy="180" r="4" fill="#F97316" opacity="0.18"/>
    <circle cx="1120" cy="170" r="5" fill="#DC382D" opacity="0.18"/>
    <circle cx="1320" cy="310" r="4" fill="#34D399" opacity="0.16"/>
    <circle cx="1180" cy="700" r="5" fill="#F97316" opacity="0.16"/>
    <rect x="510" y="170" width="580" height="560" rx="34" stroke="#DC382D" stroke-width="6" fill="#ffffff"/>
    <rect x="610" y="280" width="380" height="90" rx="16" stroke="#DC382D" stroke-width="4" fill="#FFF7ED"/>
    <rect x="610" y="420" width="380" height="90" rx="16" stroke="#DC382D" stroke-width="4" fill="#FFF7ED"/>
    <rect x="610" y="560" width="380" height="90" rx="16" stroke="#DC382D" stroke-width="4" fill="#FFF7ED"/>
    <circle cx="570" cy="325" r="26" stroke="#F97316" stroke-width="5" fill="#ffffff"/>
    <circle cx="570" cy="465" r="26" stroke="#F97316" stroke-width="5" fill="#ffffff"/>
    <circle cx="570" cy="605" r="26" stroke="#F97316" stroke-width="5" fill="#ffffff"/>
    <path d="M555 325 L566 338 L587 311" stroke="#F97316" stroke-width="5"/>
    <path d="M555 465 L566 478 L587 451" stroke="#F97316" stroke-width="5"/>
    <path d="M555 605 L566 618 L587 591" stroke="#F97316" stroke-width="5"/>
  </g>
</svg>