<svg xmlns="http://www.w3.org/2000/svg" viewBox="0 0 1600 900" width="1600" height="900" preserveAspectRatio="xMidYMid slice">
  <rect width="1600" height="900" fill="#ffffff"/>
  <g fill="none" stroke-linecap="round" stroke-linejoin="round">
    <path d="M220 220 Q430 90 650 190" stroke="#F59E0B" stroke-width="5" opacity="0.24"/>
    <path d="M1240 250 Q1380 180 1480 280" stroke="#34D399" stroke-width="4" opacity="0.18"/>
    <path d="M250 680 Q520 800 800 700 Q1080 600 1350 730" stroke="#6DB33F" stroke-width="4" opacity="0.12"/>
    <circle cx="300" cy="250" r="5" fill="#6DB33F" opacity="0.18"/>
    <circle cx="480" cy="180" r="4" fill="#34D399" opacity="0.18"/>
    <circle cx="1120" cy="170" r="5" fill="#6DB33F" opacity="0.18"/>
    <circle cx="1320" cy="310" r="4" fill="#F59E0B" opacity="0.16"/>
    <circle cx="1180" cy="700" r="5" fill="#34D399" opacity="0.16"/>
    <rect x="250" y="360" width="220" height="140" rx="24" stroke="#6DB33F" stroke-width="5" fill="#ffffff"/>
    <path d="M470 430 L650 430" stroke="#6DB33F" stroke-width="6" opacity="0.74"/>
    <circle cx="830" cy="430" r="140" stroke="#6DB33F" stroke-width="8" opacity="0.18"/>
    <circle cx="830" cy="430" r="90" stroke="#34D399" stroke-width="6" opacity="0.28"/>
    <circle cx="830" cy="430" r="26" fill="#6DB33F" opacity="0.22"/>
    <path d="M760 340 Q840 270 930 340" stroke="#F59E0B" stroke-width="6" opacity="0.64"/>
    <path d="M760 520 Q840 590 930 520" stroke="#F59E0B" stroke-width="6" opacity="0.64"/>
    <path d="M970 430 L1170 430" stroke="#34D399" stroke-width="5" opacity="0.72"/>
    <rect x="1170" y="360" width="190" height="140" rx="24" stroke="#34D399" stroke-width="5" fill="#F7FEE7"/>
    <path d="M700 430 Q830 250 960 430" stroke="#6DB33F" stroke-width="5" opacity="0.4"/>
  </g>
</svg>