<svg xmlns="http://www.w3.org/2000/svg" viewBox="0 0 1600 900" width="1600" height="900" preserveAspectRatio="xMidYMid slice">
  <rect width="1600" height="900" fill="#ffffff"/>
  <g fill="none" stroke-linecap="round" stroke-linejoin="round">
    <path d="M220 220 Q430 90 650 190" stroke="#34D399" stroke-width="5" opacity="0.24"/>
    <path d="M1240 250 Q1380 180 1480 280" stroke="#F97316" stroke-width="4" opacity="0.18"/>
    <path d="M250 680 Q520 800 800 700 Q1080 600 1350 730" stroke="#DC382D" stroke-width="4" opacity="0.12"/>
    <circle cx="300" cy="250" r="5" fill="#DC382D" opacity="0.18"/>
    <circle cx="480" cy="180" r="4" fill="#F97316" opacity="0.18"/>
    <circle cx="1120" cy="170" r="5" fill="#DC382D" opacity="0.18"/>
    <circle cx="1320" cy="310" r="4" fill="#34D399" opacity="0.16"/>
    <circle cx="1180" cy="700" r="5" fill="#F97316" opacity="0.16"/>
    <rect x="320" y="250" width="320" height="420" rx="28" stroke="#DC382D" stroke-width="5" fill="#ffffff"/>
    <rect x="390" y="330" width="180" height="70" rx="14" stroke="#DC382D" stroke-width="4" opacity="0.76"/>
    <rect x="390" y="450" width="180" height="70" rx="14" stroke="#DC382D" stroke-width="4" opacity="0.76"/>
    <circle cx="950" cy="430" r="180" stroke="#F97316" stroke-width="8" opacity="0.18"/>
    <circle cx="950" cy="430" r="80" stroke="#F97316" stroke-width="6" opacity="0.28"/>
    <line x1="1080" y1="560" x2="1220" y2="700" stroke="#F97316" stroke-width="10" opacity="0.74"/>
    <circle cx="950" cy="430" r="18" fill="#DC382D"/>
    <path d="M820 430 L870 430" stroke="#DC382D" stroke-width="5"/>
    <path d="M1030 430 L1080 430" stroke="#DC382D" stroke-width="5"/>
    <path d="M950 300 L950 350" stroke="#DC382D" stroke-width="5"/>
    <path d="M950 510 L950 560" stroke="#DC382D" stroke-width="5"/>
  </g>
</svg>