<svg xmlns="http://www.w3.org/2000/svg" viewBox="0 0 1600 900" width="1600" height="900" preserveAspectRatio="xMidYMid slice">
  <rect width="1600" height="900" fill="#ffffff"/>
  <g fill="none" stroke-linecap="round" stroke-linejoin="round">
    <path d="M220 220 Q430 90 650 190" stroke="#34D399" stroke-width="5" opacity="0.24"/>
    <path d="M1240 250 Q1380 180 1480 280" stroke="#F97316" stroke-width="4" opacity="0.18"/>
    <path d="M250 680 Q520 800 800 700 Q1080 600 1350 730" stroke="#DC382D" stroke-width="4" opacity="0.12"/>
    <circle cx="300" cy="250" r="5" fill="#DC382D" opacity="0.18"/>
    <circle cx="480" cy="180" r="4" fill="#F97316" opacity="0.18"/>
    <circle cx="1120" cy="170" r="5" fill="#DC382D" opacity="0.18"/>
    <circle cx="1320" cy="310" r="4" fill="#34D399" opacity="0.16"/>
    <circle cx="1180" cy="700" r="5" fill="#F97316" opacity="0.16"/>
    <path d="M140 500 C280 240 470 310 640 390 C780 455 900 390 1050 320 C1200 250 1340 330 1460 470" stroke="#DC382D" stroke-width="12" opacity="0.82"/>
    <path d="M180 540 Q420 660 640 570 Q860 480 1090 560 Q1290 620 1440 500" stroke="#F97316" stroke-width="5" opacity="0.26"/>
    <circle cx="220" cy="420" r="16" fill="#DC382D"/>
    <circle cx="360" cy="320" r="16" fill="#DC382D"/>
    <circle cx="500" cy="360" r="16" fill="#DC382D"/>
    <circle cx="640" cy="310" r="16" fill="#DC382D"/>
    <circle cx="780" cy="350" r="16" fill="#DC382D"/>
    <circle cx="930" cy="315" r="16" fill="#DC382D"/>
    <circle cx="1080" cy="340" r="16" fill="#DC382D"/>
    <circle cx="1230" cy="315" r="16" fill="#DC382D"/>
    <circle cx="1380" cy="370" r="16" fill="#34D399"/>
  </g>
</svg>