<svg xmlns="http://www.w3.org/2000/svg" viewBox="0 0 1600 900" width="1600" height="900" preserveAspectRatio="xMidYMid slice">
  <rect width="1600" height="900" fill="#ffffff"/>
  <g fill="none" stroke-linecap="round" stroke-linejoin="round">
    <path d="M220 220 Q430 90 650 190" stroke="#34D399" stroke-width="5" opacity="0.24"/>
    <path d="M1240 250 Q1380 180 1480 280" stroke="#F97316" stroke-width="4" opacity="0.18"/>
    <path d="M250 680 Q520 800 800 700 Q1080 600 1350 730" stroke="#DC382D" stroke-width="4" opacity="0.12"/>
    <circle cx="300" cy="250" r="5" fill="#DC382D" opacity="0.18"/>
    <circle cx="480" cy="180" r="4" fill="#F97316" opacity="0.18"/>
    <circle cx="1120" cy="170" r="5" fill="#DC382D" opacity="0.18"/>
    <circle cx="1320" cy="310" r="4" fill="#34D399" opacity="0.16"/>
    <circle cx="1180" cy="700" r="5" fill="#F97316" opacity="0.16"/>
    <rect x="580" y="170" width="420" height="520" rx="28" stroke="#DC382D" stroke-width="5" fill="#ffffff"/>
    <rect x="650" y="240" width="280" height="250" rx="18" stroke="#DC382D" stroke-width="6" fill="#FFF7ED"/>
    <line x1="690" y1="310" x2="890" y2="310" stroke="#DC382D" stroke-width="3" opacity="0.24"/>
    <line x1="690" y1="370" x2="890" y2="370" stroke="#DC382D" stroke-width="3" opacity="0.24"/>
    <rect x="660" y="540" width="110" height="80" rx="12" stroke="#F97316" stroke-width="4" fill="#FFF7ED"/>
    <rect x="830" y="540" width="110" height="80" rx="12" stroke="#F97316" stroke-width="4" fill="#FFF7ED"/>
    <path d="M260 420 L580 420" stroke="#DC382D" stroke-width="6" opacity="0.72"/>
    <path d="M1000 420 L1320 420" stroke="#F97316" stroke-width="5" opacity="0.56"/>
    <circle cx="220" cy="420" r="18" stroke="#6B7280" stroke-width="3" fill="#F9FAFB"/>
    <circle cx="1380" cy="420" r="18" stroke="#F97316" stroke-width="3" fill="#FFF7ED"/>
    <path d="M720 510 L720 540" stroke="#DC382D" stroke-width="4" opacity="0.38"/>
    <path d="M885 510 L885 540" stroke="#DC382D" stroke-width="4" opacity="0.38"/>
  </g>
</svg>