<svg xmlns="http://www.w3.org/2000/svg" viewBox="0 0 1600 900" width="1600" height="900" preserveAspectRatio="xMidYMid slice">
  <rect width="1600" height="900" fill="#ffffff"/>
  <g fill="none" stroke-linecap="round" stroke-linejoin="round">
    <path d="M220 220 Q430 90 650 190" stroke="#F59E0B" stroke-width="5" opacity="0.24"/>
    <path d="M1240 250 Q1380 180 1480 280" stroke="#34D399" stroke-width="4" opacity="0.18"/>
    <path d="M250 680 Q520 800 800 700 Q1080 600 1350 730" stroke="#009639" stroke-width="4" opacity="0.12"/>
    <circle cx="300" cy="250" r="5" fill="#009639" opacity="0.18"/>
    <circle cx="480" cy="180" r="4" fill="#34D399" opacity="0.18"/>
    <circle cx="1120" cy="170" r="5" fill="#009639" opacity="0.18"/>
    <circle cx="1320" cy="310" r="4" fill="#F59E0B" opacity="0.16"/>
    <circle cx="1180" cy="700" r="5" fill="#34D399" opacity="0.16"/>
    <rect x="300" y="240" width="300" height="420" rx="24" stroke="#009639" stroke-width="5" fill="#F0FDF4" opacity="0.9"/>
    <rect x="380" y="300" width="140" height="60" rx="14" stroke="#009639" stroke-width="4" opacity="0.72"/>
    <rect x="380" y="420" width="140" height="60" rx="14" stroke="#009639" stroke-width="4" opacity="0.72"/>
    <rect x="380" y="540" width="140" height="60" rx="14" stroke="#009639" stroke-width="4" opacity="0.72"/>
    <path d="M600 450 L760 450" stroke="#009639" stroke-width="6" opacity="0.74"/>
    <rect x="760" y="180" width="500" height="520" rx="28" stroke="#009639" stroke-width="5" fill="#ffffff"/>
    <path d="M820 300 L1020 300" stroke="#009639" stroke-width="5" opacity="0.28"/>
    <path d="M820 450 L1020 450" stroke="#34D399" stroke-width="5" opacity="0.34"/>
    <path d="M820 600 L1020 600" stroke="#F59E0B" stroke-width="5" opacity="0.34"/>
    <path d="M1020 300 C1080 300 1080 250 1140 250 L1220 250" stroke="#009639" stroke-width="5"/>
    <path d="M1020 450 C1080 450 1080 450 1140 450 L1220 450" stroke="#34D399" stroke-width="5"/>
    <path d="M1020 600 C1080 600 1080 650 1140 650 L1220 650" stroke="#F59E0B" stroke-width="5"/>
    <rect x="1220" y="215" width="90" height="70" rx="12" stroke="#009639" stroke-width="3" fill="#F0FDF4"/>
    <rect x="1220" y="415" width="90" height="70" rx="12" stroke="#34D399" stroke-width="3" fill="#F0FDF4"/>
    <rect x="1220" y="615" width="90" height="70" rx="12" stroke="#F59E0B" stroke-width="3" fill="#F0FDF4"/>
  </g>
</svg>